# xmcd CD database file
#
# Track frame offsets:
#	150
#	22475
#	48510
#	70290
#	91661
#	116031
#	137697
#	166825
#	180691
#	202602
#	222360
#	245130
#
# Disc length: 4440 seconds
#
# Revision: 0
# Processed by: cddbd v1.5.1PL0 Copyright (c) Steve Scherf et al.
# Submitted via: CDex 1.51
#
DISCID=ad11560c
DTITLE=オムニバス - LOVE STORIES 5 DISC2
DYEAR=1900
DGENRE=Pop
TTITLE0=じゃぼん玉 -長渕剛
TTITLE1=桜の雨、いつか -松たか子
TTITLE2=太陽は沈まない -THE ALFEE
TTITLE3=DO NOT -藤井フミヤ
TTITLE4=STARS -オリジナル・ラブ
TTITLE5=風の中の火のように -KAIFIVE
TTITLE6=戻れない道 -平松愛理
TTITLE7=短いKissの長いストーリー -Little Baby
TTITLE8=誰がために鐘はなる -rough laugh
TTITLE9=Ｂａｉｌｌａ！Ｂａｉｌｌａ！Ｂａｉｌｌａ！ -THE WAVES
TTITLE10=銀の龍の背に乗って
TTITLE11=いらない
EXTD=
EXTT0=
EXTT1=
EXTT2=
EXTT3=
EXTT4=
EXTT5=
EXTT6=
EXTT7=
EXTT8=
EXTT9=
EXTT10=
EXTT11=
PLAYORDER=
